<?xml version="1.0" encoding="UTF-8" standalone="no"?>
<!-- Created with Inkscape (http://www.inkscape.org/) -->

<svg
   xmlns:dc="http://purl.org/dc/elements/1.1/"
   xmlns:cc="http://creativecommons.org/ns#"
   xmlns:rdf="http://www.w3.org/1999/02/22-rdf-syntax-ns#"
   xmlns:svg="http://www.w3.org/2000/svg"
   xmlns="http://www.w3.org/2000/svg"
   xmlns:sodipodi="http://sodipodi.sourceforge.net/DTD/sodipodi-0.dtd"
   xmlns:inkscape="http://www.inkscape.org/namespaces/inkscape"
   width="48pt"
   height="48pt"
   viewBox="0 0 16.933334 16.933333"
   version="1.1"
   id="svg979"
   inkscape:version="0.92.4 (5da689c313, 2019-01-14)"
   sodipodi:docname="6 - Business Strategy.svg"
   inkscape:export-filename="E:\TR Design Studio Creative\Project Design\TR Creative Design\Icon Design\Project Hiring\Icon Icons\003 - Business And Finance\Send\4 - Filled Line\5 - Chart.png"
   inkscape:export-xdpi="768"
   inkscape:export-ydpi="768">
  <defs
     id="defs973" />
  <sodipodi:namedview
     id="base"
     pagecolor="#ffffff"
     bordercolor="#666666"
     borderopacity="1.0"
     inkscape:pageopacity="0.0"
     inkscape:pageshadow="2"
     inkscape:zoom="4.2734375"
     inkscape:cx="67.68087"
     inkscape:cy="16.319711"
     inkscape:document-units="pt"
     inkscape:current-layer="layer1"
     showgrid="false"
     units="pt"
     inkscape:window-width="1366"
     inkscape:window-height="716"
     inkscape:window-x="-8"
     inkscape:window-y="-8"
     inkscape:window-maximized="1"
     inkscape:snap-bbox="true"
     inkscape:bbox-nodes="true"
     inkscape:snap-nodes="false"
     showguides="false">
    <inkscape:grid
       type="xygrid"
       id="grid1526" />
    <sodipodi:guide
       position="0.97013909,15.963209"
       orientation="56.666615,0"
       id="guide1528"
       inkscape:locked="false" />
    <sodipodi:guide
       position="0.97013909,0.97016731"
       orientation="0,56.666667"
       id="guide1530"
       inkscape:locked="false" />
    <sodipodi:guide
       position="15.963195,0.97016731"
       orientation="-56.666615,0"
       id="guide1532"
       inkscape:locked="false" />
    <sodipodi:guide
       position="15.963195,15.963209"
       orientation="0,-56.666667"
       id="guide1534"
       inkscape:locked="false" />
  </sodipodi:namedview>
  <metadata
     id="metadata976">
    <rdf:RDF>
      <cc:Work
         rdf:about="">
        <dc:format>image/svg+xml</dc:format>
        <dc:type
           rdf:resource="http://purl.org/dc/dcmitype/StillImage" />
        <dc:title></dc:title>
      </cc:Work>
    </rdf:RDF>
  </metadata>
  <g
     inkscape:label="Layer 1"
     inkscape:groupmode="layer"
     id="layer1"
     transform="translate(0,-280.06668)">
    <g
       transform="matrix(1.2437599,0,0,1.2437599,-81.568724,-45.586128)"
       id="g2295"
       style="stroke-width:0.80401373">
      <path
         inkscape:connector-curvature="0"
         id="path2046"
         d="m 70.257187,270.95762 c -0.149133,-0.006 -0.249645,0.12406 -0.277859,0.25741 -0.346133,1.04132 -0.695804,2.08156 -1.039724,3.12356 -0.04689,0.17904 0.12693,0.3505 0.304501,0.32216 0.346482,-9.9e-4 0.693075,0.002 1.039487,-0.001 0.138461,-0.008 0.221423,-0.13135 0.247673,-0.25455 0.346718,-1.04188 0.697082,-2.08265 1.041522,-3.12523 0.04664,-0.17893 -0.127052,-0.35012 -0.304472,-0.32186 -0.337042,0 -0.674085,0 -1.011128,0 z"
         style="color:#000000;font-style:normal;font-variant:normal;font-weight:normal;font-stretch:normal;font-size:medium;line-height:normal;font-family:sans-serif;font-variant-ligatures:normal;font-variant-position:normal;font-variant-caps:normal;font-variant-numeric:normal;font-variant-alternates:normal;font-feature-settings:normal;text-indent:0;text-align:start;text-decoration:none;text-decoration-line:none;text-decoration-style:solid;text-decoration-color:#000000;letter-spacing:normal;word-spacing:normal;text-transform:none;writing-mode:lr-tb;direction:ltr;text-orientation:mixed;dominant-baseline:auto;baseline-shift:baseline;text-anchor:start;white-space:normal;shape-padding:0;clip-rule:nonzero;display:inline;overflow:visible;visibility:visible;isolation:auto;mix-blend-mode:normal;color-interpolation:sRGB;color-interpolation-filters:linearRGB;solid-color:#000000;solid-opacity:1;vector-effect:none;fill:#ffb03b;fill-opacity:1;fill-rule:nonzero;stroke:none;stroke-width:0.42545754;stroke-linecap:round;stroke-linejoin:round;stroke-miterlimit:4;stroke-dasharray:none;stroke-dashoffset:0;stroke-opacity:1;color-rendering:auto;image-rendering:auto;shape-rendering:auto;text-rendering:auto;enable-background:accumulate" />
      <path
         inkscape:connector-curvature="0"
         id="path2108"
         d="m 70.795655,270.95771 c 0.184539,4e-5 0.310471,0.21554 0.230326,0.37868 -0.34842,1.04563 -0.69896,2.09067 -1.046057,3.13668 -0.03012,0.10927 -0.138596,0.18856 -0.251909,0.18782 0.193802,-0.003 0.388501,0.007 0.581678,-0.006 0.124511,-0.0191 0.194312,-0.13255 0.219575,-0.2451 0.347328,-1.04365 0.69833,-2.08619 1.043361,-3.13055 0.046,-0.17663 -0.123926,-0.34837 -0.300059,-0.32175 -0.158971,0 -0.317943,0 -0.476915,0 z"
         style="color:#000000;font-style:normal;font-variant:normal;font-weight:normal;font-stretch:normal;font-size:medium;line-height:normal;font-family:sans-serif;font-variant-ligatures:normal;font-variant-position:normal;font-variant-caps:normal;font-variant-numeric:normal;font-variant-alternates:normal;font-feature-settings:normal;text-indent:0;text-align:start;text-decoration:none;text-decoration-line:none;text-decoration-style:solid;text-decoration-color:#000000;letter-spacing:normal;word-spacing:normal;text-transform:none;writing-mode:lr-tb;direction:ltr;text-orientation:mixed;dominant-baseline:auto;baseline-shift:baseline;text-anchor:start;white-space:normal;shape-padding:0;clip-rule:nonzero;display:inline;overflow:visible;visibility:visible;isolation:auto;mix-blend-mode:normal;color-interpolation:sRGB;color-interpolation-filters:linearRGB;solid-color:#000000;solid-opacity:1;vector-effect:none;fill:#d7993f;fill-opacity:1;fill-rule:nonzero;stroke:none;stroke-width:0.42545754;stroke-linecap:round;stroke-linejoin:round;stroke-miterlimit:4;stroke-dasharray:none;stroke-dashoffset:0;stroke-opacity:1;color-rendering:auto;image-rendering:auto;shape-rendering:auto;text-rendering:auto;enable-background:accumulate" />
      <path
         inkscape:connector-curvature="0"
         id="path2060"
         d="m 73.466171,270.95762 c -0.190584,-0.008 -0.32511,0.21464 -0.240438,0.38221 0.349026,1.04707 0.698053,2.09415 1.047079,3.14123 0.04273,0.12998 0.182135,0.19866 0.313093,0.1798 0.341274,-9.5e-4 0.682653,0.002 1.023861,-0.001 0.183754,-0.0125 0.291444,-0.2303 0.209196,-0.38939 -0.351763,-1.05227 -0.699888,-2.10587 -1.053927,-3.15731 -0.05351,-0.13252 -0.202844,-0.16701 -0.331306,-0.15509 -0.322519,0 -0.645038,0 -0.967558,0 z"
         style="color:#000000;font-style:normal;font-variant:normal;font-weight:normal;font-stretch:normal;font-size:medium;line-height:normal;font-family:sans-serif;font-variant-ligatures:normal;font-variant-position:normal;font-variant-caps:normal;font-variant-numeric:normal;font-variant-alternates:normal;font-feature-settings:normal;text-indent:0;text-align:start;text-decoration:none;text-decoration-line:none;text-decoration-style:solid;text-decoration-color:#000000;letter-spacing:normal;word-spacing:normal;text-transform:none;writing-mode:lr-tb;direction:ltr;text-orientation:mixed;dominant-baseline:auto;baseline-shift:baseline;text-anchor:start;white-space:normal;shape-padding:0;clip-rule:nonzero;display:inline;overflow:visible;visibility:visible;isolation:auto;mix-blend-mode:normal;color-interpolation:sRGB;color-interpolation-filters:linearRGB;solid-color:#000000;solid-opacity:1;vector-effect:none;fill:#ffb03b;fill-opacity:1;fill-rule:nonzero;stroke:none;stroke-width:0.42545754;stroke-linecap:round;stroke-linejoin:round;stroke-miterlimit:4;stroke-dasharray:none;stroke-dashoffset:0;stroke-opacity:1;color-rendering:auto;image-rendering:auto;shape-rendering:auto;text-rendering:auto;enable-background:accumulate" />
      <path
         sodipodi:nodetypes="ccccccccc"
         inkscape:connector-curvature="0"
         id="path2113"
         style="color:#000000;font-style:normal;font-variant:normal;font-weight:normal;font-stretch:normal;font-size:medium;line-height:normal;font-family:sans-serif;font-variant-ligatures:normal;font-variant-position:normal;font-variant-caps:normal;font-variant-numeric:normal;font-variant-alternates:normal;font-feature-settings:normal;text-indent:0;text-align:start;text-decoration:none;text-decoration-line:none;text-decoration-style:solid;text-decoration-color:#000000;letter-spacing:normal;word-spacing:normal;text-transform:none;writing-mode:lr-tb;direction:ltr;text-orientation:mixed;dominant-baseline:auto;baseline-shift:baseline;text-anchor:start;white-space:normal;shape-padding:0;clip-rule:nonzero;display:inline;overflow:visible;visibility:visible;isolation:auto;mix-blend-mode:normal;color-interpolation:sRGB;color-interpolation-filters:linearRGB;solid-color:#000000;solid-opacity:1;vector-effect:none;fill:#d7993f;fill-opacity:1;fill-rule:nonzero;stroke:none;stroke-width:0.42545754;stroke-linecap:round;stroke-linejoin:round;stroke-miterlimit:4;stroke-dasharray:none;stroke-dashoffset:0;stroke-opacity:1;color-rendering:auto;image-rendering:auto;shape-rendering:auto;text-rendering:auto;enable-background:accumulate"
         d="m 75.583475,274.66084 c 0.179713,-0.001 0.306088,-0.17717 0.249597,-0.34778 l -1.058332,-3.17552 c -0.03629,-0.1073 -0.136847,-0.1796 -0.250114,-0.17983 h -0.529167 c 0.113268,2.3e-4 0.213825,0.0725 0.250115,0.17983 l 1.058333,3.17552 c 0.05649,0.17061 -0.06988,0.34669 -0.249597,0.34778 z" />
      <path
         inkscape:connector-curvature="0"
         style="color:#000000;font-style:normal;font-variant:normal;font-weight:normal;font-stretch:normal;font-size:medium;line-height:normal;font-family:sans-serif;font-variant-ligatures:normal;font-variant-position:normal;font-variant-caps:normal;font-variant-numeric:normal;font-variant-alternates:normal;font-feature-settings:normal;text-indent:0;text-align:start;text-decoration:none;text-decoration-line:none;text-decoration-style:solid;text-decoration-color:#000000;letter-spacing:normal;word-spacing:normal;text-transform:none;writing-mode:lr-tb;direction:ltr;text-orientation:mixed;dominant-baseline:auto;baseline-shift:baseline;text-anchor:start;white-space:normal;shape-padding:0;clip-rule:nonzero;display:inline;overflow:visible;visibility:visible;isolation:auto;mix-blend-mode:normal;color-interpolation:sRGB;color-interpolation-filters:linearRGB;solid-color:#000000;solid-opacity:1;vector-effect:none;fill:#ffb03b;fill-opacity:1;fill-rule:nonzero;stroke:none;stroke-width:0.42545754;stroke-linecap:round;stroke-linejoin:round;stroke-miterlimit:4;stroke-dasharray:none;stroke-dashoffset:0;stroke-opacity:1;color-rendering:auto;image-rendering:auto;shape-rendering:auto;text-rendering:auto;enable-background:accumulate"
         d="m 68.163437,269.89903 a 0.26460996,0.26460996 0 0 0 -0.263672,0.26367 v 1.0586 a 0.26460996,0.26460996 0 0 0 0.263672,0.26562 h 8.453125 a 0.26460996,0.26460996 0 0 0 0.265625,-0.26562 v -1.0586 a 0.26460996,0.26460996 0 0 0 -0.265625,-0.26367 z"
         id="path2032" />
      <path
         inkscape:connector-curvature="0"
         id="path2103"
         style="color:#000000;font-style:normal;font-variant:normal;font-weight:normal;font-stretch:normal;font-size:medium;line-height:normal;font-family:sans-serif;font-variant-ligatures:normal;font-variant-position:normal;font-variant-caps:normal;font-variant-numeric:normal;font-variant-alternates:normal;font-feature-settings:normal;text-indent:0;text-align:start;text-decoration:none;text-decoration-line:none;text-decoration-style:solid;text-decoration-color:#000000;letter-spacing:normal;word-spacing:normal;text-transform:none;writing-mode:lr-tb;direction:ltr;text-orientation:mixed;dominant-baseline:auto;baseline-shift:baseline;text-anchor:start;white-space:normal;shape-padding:0;clip-rule:nonzero;display:inline;overflow:visible;visibility:visible;isolation:auto;mix-blend-mode:normal;color-interpolation:sRGB;color-interpolation-filters:linearRGB;solid-color:#000000;solid-opacity:1;vector-effect:none;fill:#d7993f;fill-opacity:1;fill-rule:nonzero;stroke:none;stroke-width:0.42545754;stroke-linecap:round;stroke-linejoin:round;stroke-miterlimit:4;stroke-dasharray:none;stroke-dashoffset:0;stroke-opacity:1;color-rendering:auto;image-rendering:auto;shape-rendering:auto;text-rendering:auto;enable-background:accumulate"
         d="m 68.163258,269.89886 c -0.145512,5.8e-4 -0.263249,0.11855 -0.26355,0.26406 l 5.7e-5,0.52908 h 7.927078 c 0.309607,0 0.526094,0.0892 0.526094,0.34447 v 0.45041 h 0.26355 c 0.146929,5.6e-4 0.266179,-0.11869 0.265617,-0.26562 v -1.05834 c -3.03e-4,-0.14632 -0.119299,-0.26462 -0.265617,-0.26406 z"
         sodipodi:nodetypes="ccccccccccc" />
      <path
         inkscape:connector-curvature="0"
         style="color:#000000;font-style:normal;font-variant:normal;font-weight:normal;font-stretch:normal;font-size:medium;line-height:normal;font-family:sans-serif;font-variant-ligatures:normal;font-variant-position:normal;font-variant-caps:normal;font-variant-numeric:normal;font-variant-alternates:normal;font-feature-settings:normal;text-indent:0;text-align:start;text-decoration:none;text-decoration-line:none;text-decoration-style:solid;text-decoration-color:#000000;letter-spacing:normal;word-spacing:normal;text-transform:none;writing-mode:lr-tb;direction:ltr;text-orientation:mixed;dominant-baseline:auto;baseline-shift:baseline;text-anchor:start;white-space:normal;shape-padding:0;clip-rule:nonzero;display:inline;overflow:visible;visibility:visible;isolation:auto;mix-blend-mode:normal;color-interpolation:sRGB;color-interpolation-filters:linearRGB;solid-color:#000000;solid-opacity:1;vector-effect:none;fill:#e6e6e6;fill-opacity:1;fill-rule:nonzero;stroke:none;stroke-width:0.42545754;stroke-linecap:round;stroke-linejoin:round;stroke-miterlimit:4;stroke-dasharray:none;stroke-dashoffset:0;stroke-opacity:1;color-rendering:auto;image-rendering:auto;shape-rendering:auto;text-rendering:auto;enable-background:accumulate"
         d="m 67.241562,262.61192 c -0.367703,0 -0.671875,0.30417 -0.671875,0.67188 v 6.47265 c 0,0.36771 0.304172,0.67188 0.671875,0.67188 h 10.296875 c 0.367703,0 0.671875,-0.30417 0.671875,-0.67188 v -6.47265 c 0,-0.36771 -0.304172,-0.67188 -0.671875,-0.67188 z"
         id="path2017" />
      <path
         inkscape:connector-curvature="0"
         style="color:#000000;font-style:normal;font-variant:normal;font-weight:normal;font-stretch:normal;font-size:medium;line-height:normal;font-family:sans-serif;font-variant-ligatures:normal;font-variant-position:normal;font-variant-caps:normal;font-variant-numeric:normal;font-variant-alternates:normal;font-feature-settings:normal;text-indent:0;text-align:start;text-decoration:none;text-decoration-line:none;text-decoration-style:solid;text-decoration-color:#000000;letter-spacing:normal;word-spacing:normal;text-transform:none;writing-mode:lr-tb;direction:ltr;text-orientation:mixed;dominant-baseline:auto;baseline-shift:baseline;text-anchor:start;white-space:normal;shape-padding:0;clip-rule:nonzero;display:inline;overflow:visible;visibility:visible;isolation:auto;mix-blend-mode:normal;color-interpolation:sRGB;color-interpolation-filters:linearRGB;solid-color:#000000;solid-opacity:1;vector-effect:none;fill:#78909c;fill-opacity:1;fill-rule:nonzero;stroke:none;stroke-width:0.42545754;stroke-linecap:round;stroke-linejoin:round;stroke-miterlimit:4;stroke-dasharray:none;stroke-dashoffset:0;stroke-opacity:1;color-rendering:auto;image-rendering:auto;shape-rendering:auto;text-rendering:auto;enable-background:accumulate"
         d="m 74.241562,264.07872 a 0.26460996,0.26460996 0 0 0 -0.263672,0.26367 v 0.5293 a 0.26460996,0.26460996 0 0 0 0.07813,0.1875 l 0.08203,0.082 -0.511719,0.54297 a 0.26460996,0.26460996 0 0 0 -0.04492,0.29687 l 0.158204,0.32813 a 0.26460996,0.26460996 0 0 0 0.238281,0.15042 h 0.337891 l 0.179687,0.53906 -0.24414,0.98437 a 0.26460996,0.26460996 0 0 0 0.255859,0.32813 h 1.851562 a 0.26460996,0.26460996 0 0 0 0.265625,-0.26367 v -0.79493 l -0.01367,0.084 c 0.206159,-0.61848 0.348285,-1.36653 0.271485,-2.01172 -0.0384,-0.3226 -0.13243,-0.62657 -0.332031,-0.86328 -0.199601,-0.23671 -0.511963,-0.38281 -0.878907,-0.38281 z"
         id="path1988" />
      <path
         inkscape:connector-curvature="0"
         style="color:#000000;font-style:normal;font-variant:normal;font-weight:normal;font-stretch:normal;font-size:medium;line-height:normal;font-family:sans-serif;font-variant-ligatures:normal;font-variant-position:normal;font-variant-caps:normal;font-variant-numeric:normal;font-variant-alternates:normal;font-feature-settings:normal;text-indent:0;text-align:start;text-decoration:none;text-decoration-line:none;text-decoration-style:solid;text-decoration-color:#000000;letter-spacing:normal;word-spacing:normal;text-transform:none;writing-mode:lr-tb;direction:ltr;text-orientation:mixed;dominant-baseline:auto;baseline-shift:baseline;text-anchor:start;white-space:normal;shape-padding:0;clip-rule:nonzero;display:inline;overflow:visible;visibility:visible;isolation:auto;mix-blend-mode:normal;color-interpolation:sRGB;color-interpolation-filters:linearRGB;solid-color:#000000;solid-opacity:1;vector-effect:none;fill:#78909c;fill-opacity:1;fill-rule:nonzero;stroke:none;stroke-width:0.42545754;stroke-linecap:round;stroke-linejoin:round;stroke-miterlimit:4;stroke-dasharray:none;stroke-dashoffset:0;stroke-opacity:1;color-rendering:auto;image-rendering:auto;shape-rendering:auto;text-rendering:auto;enable-background:accumulate"
         d="m 74.241562,264.07872 a 0.26460996,0.26460996 0 0 0 -0.263672,0.26367 v 0.5293 a 0.26460996,0.26460996 0 0 0 0.07813,0.1875 l 0.263672,0.26367 a 0.26460996,0.26460996 0 0 0 0.1875,0.0781 h 0.894531 l 0.154297,0.30664 c -0.06469,0.51069 -0.141136,0.98675 -0.25,1.49024 a 0.26460996,0.26460996 0 0 0 -0.0059,0.0547 v 0.79493 a 0.26460996,0.26460996 0 0 0 0.265625,0.26367 h 0.792968 a 0.26460996,0.26460996 0 0 0 0.265625,-0.26367 v -0.79493 l -0.01367,0.084 c 0.206159,-0.61848 0.348285,-1.36653 0.271485,-2.01172 -0.0384,-0.3226 -0.13243,-0.62657 -0.332031,-0.86328 -0.199601,-0.23671 -0.511963,-0.38281 -0.878907,-0.38281 z"
         id="path2002" />
      <path
         inkscape:connector-curvature="0"
         style="color:#000000;font-style:normal;font-variant:normal;font-weight:normal;font-stretch:normal;font-size:medium;line-height:normal;font-family:sans-serif;font-variant-ligatures:normal;font-variant-position:normal;font-variant-caps:normal;font-variant-numeric:normal;font-variant-alternates:normal;font-feature-settings:normal;text-indent:0;text-align:start;text-decoration:none;text-decoration-line:none;text-decoration-style:solid;text-decoration-color:#000000;letter-spacing:normal;word-spacing:normal;text-transform:none;writing-mode:lr-tb;direction:ltr;text-orientation:mixed;dominant-baseline:auto;baseline-shift:baseline;text-anchor:start;white-space:normal;shape-padding:0;clip-rule:nonzero;display:inline;overflow:visible;visibility:visible;isolation:auto;mix-blend-mode:normal;color-interpolation:sRGB;color-interpolation-filters:linearRGB;solid-color:#000000;solid-opacity:1;vector-effect:none;fill:#78909c;fill-opacity:1;fill-rule:nonzero;stroke:none;stroke-width:0.42545754;stroke-linecap:round;stroke-linejoin:round;stroke-miterlimit:4;stroke-dasharray:none;stroke-dashoffset:0;stroke-opacity:1;color-rendering:auto;image-rendering:auto;shape-rendering:auto;text-rendering:auto;enable-background:accumulate"
         d="m 74.241562,267.78184 a 0.26460996,0.26460996 0 0 0 -0.25,0.18164 l -0.265625,0.79297 a 0.26460996,0.26460996 0 0 0 0.251953,0.34961 h 2.910156 a 0.26460996,0.26460996 0 0 0 0.251953,-0.34961 l -0.265625,-0.79297 a 0.26460996,0.26460996 0 0 0 -0.25,-0.18164 z"
         id="path1974" />
      <path
         inkscape:connector-curvature="0"
         style="color:#000000;font-style:normal;font-variant:normal;font-weight:normal;font-stretch:normal;font-size:medium;line-height:normal;font-family:sans-serif;font-variant-ligatures:normal;font-variant-position:normal;font-variant-caps:normal;font-variant-numeric:normal;font-variant-alternates:normal;font-feature-settings:normal;text-indent:0;text-align:start;text-decoration:none;text-decoration-line:none;text-decoration-style:solid;text-decoration-color:#000000;letter-spacing:normal;word-spacing:normal;text-transform:none;writing-mode:lr-tb;direction:ltr;text-orientation:mixed;dominant-baseline:auto;baseline-shift:baseline;text-anchor:start;white-space:normal;shape-padding:0;clip-rule:nonzero;display:inline;overflow:visible;visibility:visible;isolation:auto;mix-blend-mode:normal;color-interpolation:sRGB;color-interpolation-filters:linearRGB;solid-color:#000000;solid-opacity:1;vector-effect:none;fill:#ffb03b;fill-opacity:1;fill-rule:nonzero;stroke:none;stroke-width:0.42545754;stroke-linecap:round;stroke-linejoin:round;stroke-miterlimit:4;stroke-dasharray:none;stroke-dashoffset:0;stroke-opacity:1;color-rendering:auto;image-rendering:auto;shape-rendering:auto;text-rendering:auto;enable-background:accumulate"
         d="m 70.433098,272.01622 c -0.146175,-5.8e-4 -0.265121,0.11749 -0.265625,0.26367 -5.76e-4,0.14694 0.118687,0.2662 0.265625,0.26562 h 3.369011 c 0.146175,-5e-4 0.264245,-0.11945 0.263672,-0.26562 -5.02e-4,-0.14541 -0.118259,-0.26317 -0.263672,-0.26367 z"
         id="path2074"
         sodipodi:nodetypes="ccccccc" />
      <path
         inkscape:connector-curvature="0"
         style="color:#000000;font-style:normal;font-variant:normal;font-weight:normal;font-stretch:normal;font-size:medium;line-height:normal;font-family:sans-serif;font-variant-ligatures:normal;font-variant-position:normal;font-variant-caps:normal;font-variant-numeric:normal;font-variant-alternates:normal;font-feature-settings:normal;text-indent:0;text-align:start;text-decoration:none;text-decoration-line:none;text-decoration-style:solid;text-decoration-color:#000000;letter-spacing:normal;word-spacing:normal;text-transform:none;writing-mode:lr-tb;direction:ltr;text-orientation:mixed;dominant-baseline:auto;baseline-shift:baseline;text-anchor:start;white-space:normal;shape-padding:0;clip-rule:nonzero;display:inline;overflow:visible;visibility:visible;isolation:auto;mix-blend-mode:normal;color-interpolation:sRGB;color-interpolation-filters:linearRGB;solid-color:#000000;solid-opacity:1;vector-effect:none;fill:#ffb03b;fill-opacity:1;fill-rule:nonzero;stroke:none;stroke-width:0.42545754;stroke-linecap:round;stroke-linejoin:round;stroke-miterlimit:4;stroke-dasharray:none;stroke-dashoffset:0;stroke-opacity:1;color-rendering:auto;image-rendering:auto;shape-rendering:auto;text-rendering:auto;enable-background:accumulate"
         d="m 70.062004,273.07481 c -0.145413,5e-4 -0.26317,0.11826 -0.263671,0.26367 5.01e-4,0.14541 0.118258,0.26317 0.263671,0.26367 h 4.109245 c 0.146176,5.8e-4 0.265122,-0.11749 0.265625,-0.26367 -5.03e-4,-0.14618 -0.119449,-0.26425 -0.265625,-0.26367 z"
         id="path2084"
         sodipodi:nodetypes="ccccccc" />
      <path
         inkscape:connector-curvature="0"
         id="path2091"
         style="color:#000000;font-style:normal;font-variant:normal;font-weight:normal;font-stretch:normal;font-size:medium;line-height:normal;font-family:sans-serif;font-variant-ligatures:normal;font-variant-position:normal;font-variant-caps:normal;font-variant-numeric:normal;font-variant-alternates:normal;font-feature-settings:normal;text-indent:0;text-align:start;text-decoration:none;text-decoration-line:none;text-decoration-style:solid;text-decoration-color:#000000;letter-spacing:normal;word-spacing:normal;text-transform:none;writing-mode:lr-tb;direction:ltr;text-orientation:mixed;dominant-baseline:auto;baseline-shift:baseline;text-anchor:start;white-space:normal;shape-padding:0;clip-rule:nonzero;display:inline;overflow:visible;visibility:visible;isolation:auto;mix-blend-mode:normal;color-interpolation:sRGB;color-interpolation-filters:linearRGB;solid-color:#000000;solid-opacity:1;vector-effect:none;fill:#b2b2b2;fill-opacity:1;fill-rule:nonzero;stroke:none;stroke-width:0.42545754;stroke-linecap:round;stroke-linejoin:round;stroke-miterlimit:4;stroke-dasharray:none;stroke-dashoffset:0;stroke-opacity:1;color-rendering:auto;image-rendering:auto;shape-rendering:auto;text-rendering:auto;enable-background:accumulate"
         d="m 76.095071,267.78167 a 0.26460995,0.26460995 0 0 1 0.250114,0.18191 l 0.265617,0.79271 a 0.26460995,0.26460995 0 0 1 -0.252181,0.34985 h 0.529166 a 0.26460995,0.26460995 0 0 0 0.252181,-0.34985 l -0.265616,-0.79271 a 0.26460995,0.26460995 0 0 0 -0.250114,-0.18191 z" />
      <path
         inkscape:connector-curvature="0"
         id="path2096"
         style="color:#000000;font-style:normal;font-variant:normal;font-weight:normal;font-stretch:normal;font-size:medium;line-height:normal;font-family:sans-serif;font-variant-ligatures:normal;font-variant-position:normal;font-variant-caps:normal;font-variant-numeric:normal;font-variant-alternates:normal;font-feature-settings:normal;text-indent:0;text-align:start;text-decoration:none;text-decoration-line:none;text-decoration-style:solid;text-decoration-color:#000000;letter-spacing:normal;word-spacing:normal;text-transform:none;writing-mode:lr-tb;direction:ltr;text-orientation:mixed;dominant-baseline:auto;baseline-shift:baseline;text-anchor:start;white-space:normal;shape-padding:0;clip-rule:nonzero;display:inline;overflow:visible;visibility:visible;isolation:auto;mix-blend-mode:normal;color-interpolation:sRGB;color-interpolation-filters:linearRGB;solid-color:#000000;solid-opacity:1;vector-effect:none;fill:#cccccc;fill-opacity:1;fill-rule:nonzero;stroke:none;stroke-width:0.42545754;stroke-linecap:round;stroke-linejoin:round;stroke-miterlimit:4;stroke-dasharray:none;stroke-dashoffset:0;stroke-opacity:1;color-rendering:auto;image-rendering:auto;shape-rendering:auto;text-rendering:auto;enable-background:accumulate"
         d="m 67.24135,262.61196 c -0.323507,0 -0.597085,0.23559 -0.658358,0.54261 0.04194,-0.008 0.08499,-0.0134 0.129191,-0.0134 h 10.297045 c 0.367703,0 0.671794,0.30409 0.671794,0.6718 v 6.47247 c 0,0.0442 -0.0045,0.0878 -0.01292,0.12971 0.306769,-0.0615 0.542086,-0.33554 0.542086,-0.65888 v -6.47247 c 0,-0.36771 -0.30409,-0.6718 -0.671794,-0.6718 z" />
      <path
         sodipodi:nodetypes="ssssccccccsccccsccccccsssssssssccsssccccccccccccccccccccccccccccccccccccccccsccscccscccccccccccccccccccccccccccccccccccccccccccccccccccccccccccccccccccccccccccccccccccccccccccccccccccczccc"
         inkscape:connector-curvature="0"
         id="rect1451"
         d="m 67.241372,262.60933 c -0.367704,0 -0.672309,0.30461 -0.672309,0.67231 v 6.47247 c 0,0.3677 0.304605,0.6718 0.672309,0.6718 h 0.657842 v 0.79323 c -5.29e-4,0.14632 0.117745,0.26532 0.264067,0.26562 h 1.725475 l -0.942578,2.82618 c -0.05839,0.17214 0.07041,0.35027 0.252182,0.34933 h 1.019575 c 0.176554,0 0.246102,-0.11143 0.302307,-0.22531 l 0.278019,-0.83302 h 3.181202 l 0.28112,0.84336 c 0.03654,0.13638 0.139549,0.21549 0.300757,0.21549 h 1.021644 c 0.180951,-4e-4 0.308239,-0.17849 0.250113,-0.34985 l -0.942578,-2.82618 h 1.725477 c 0.146926,5.5e-4 0.266176,-0.11869 0.265615,-0.26562 v -0.79323 h 0.656291 c 0.367705,0 0.671793,-0.3041 0.671793,-0.6718 v -6.47247 c 0,-0.3677 -0.304088,-0.67231 -0.671793,-0.67231 z m 0,0.52968 h 10.29653 c 0.0837,0 0.144696,0.0589 0.144696,0.14263 v 6.47247 c 0,0.0837 -0.061,0.14263 -0.144696,0.14263 -3.432177,0 -6.864352,0 -10.29653,0 -0.0837,0 -0.142626,-0.0589 -0.142626,-0.14263 v -6.47247 c 0,-0.0837 0.05893,-0.14263 0.142626,-0.14263 z m 3.399793,0.9338 c -0.0092,4e-5 -0.01828,5.5e-4 -0.02739,0.002 -0.224065,0.0222 -0.319715,0.29638 -0.158131,0.4532 l 0.07803,0.078 -0.07803,0.078 c -0.258948,0.25009 0.126516,0.63343 0.375171,0.37311 l 0.077,-0.077 0.077,0.077 c 0.248656,0.26032 0.634119,-0.12302 0.375172,-0.37311 l -0.07803,-0.078 0.07803,-0.078 c 0.170783,-0.16797 0.04829,-0.45832 -0.191202,-0.4532 -0.06946,0.002 -0.13554,0.0303 -0.18397,0.0801 l -0.077,0.077 -0.077,-0.077 c -0.04955,-0.0518 -0.117988,-0.0812 -0.189653,-0.0817 z m 3.601331,0.004 c -0.146174,-5.5e-4 -0.265102,0.11738 -0.265615,0.26355 v 0.52917 c 5.8e-5,0.0704 0.02808,0.13798 0.07803,0.18758 l 0.08423,0.0822 -0.512114,0.5426 c -0.07576,0.0796 -0.09406,0.19804 -0.04651,0.29714 l 0.15813,0.32815 c 0.04391,0.0918 0.136494,0.15022 0.238229,0.15038 h 0.339513 l 0.179835,0.53898 -0.195856,0.7829 h -0.05788 c -0.114575,-3.7e-4 -0.216365,0.0731 -0.252179,0.1819 l -0.263552,0.79272 c -0.05835,0.17148 0.06897,0.34958 0.250116,0.34985 h 2.909897 c 0.182013,0.001 0.31082,-0.17754 0.252183,-0.34985 l -0.263552,-0.79272 c -0.03581,-0.10884 -0.137604,-0.18226 -0.252179,-0.1819 v -0.49299 c 0.197855,-0.60937 0.332761,-1.33657 0.257865,-1.96578 -0.0384,-0.32259 -0.132678,-0.62473 -0.332279,-0.86144 -0.199601,-0.23672 -0.512074,-0.38241 -0.879017,-0.38241 z m 0.263552,0.52917 h 1.163751 c 0.241604,0 0.369924,0.0688 0.474908,0.19327 0.104982,0.1245 0.1802,0.32859 0.210839,0.58601 0.06128,0.51483 -0.06064,1.21906 -0.248047,1.78129 -0.0091,0.0271 -0.01344,0.0552 -0.01344,0.0837 v 0.52917 h -0.264067 v -0.50746 c 0.113903,-0.5324 0.1954,-1.03608 0.262001,-1.57614 0.0065,-0.0515 -0.0024,-0.10377 -0.02532,-0.15037 l -0.265615,-0.52917 c -0.04471,-0.0896 -0.136528,-0.14659 -0.236678,-0.14676 H 74.6156 l -0.109554,-0.10956 z m -5.717998,0.5271 c -0.119883,10e-4 -0.223991,0.0828 -0.253733,0.19895 l -0.264065,1.05885 c -0.07919,0.33846 0.423945,0.4645 0.513662,0.12868 l 0.119375,-0.47439 1.413865,2.14457 c 0.09608,0.14609 0.304924,0.16047 0.420131,0.0289 l 1.851565,-2.11719 c 0.250672,-0.26671 -0.168021,-0.63219 -0.398425,-0.34778 l -1.623155,1.8557 -1.180807,-1.79059 0.399458,0.0992 c 0.342561,0.0861 0.471752,-0.42753 0.12919,-0.51366 l -1.058849,-0.26355 c -0.02199,-0.006 -0.04838,-0.005 -0.06821,-0.008 z m 5.832718,0.26562 h 0.779799 l 0.154511,0.30489 c -0.06474,0.51143 -0.139046,0.98777 -0.248047,1.49189 -0.0039,0.018 -0.0061,0.0364 -0.0062,0.0548 v 0.52917 h -0.454754 l 0.181385,-0.72812 c 0.01225,-0.049 0.01042,-0.10093 -0.0057,-0.14883 l -0.263556,-0.79272 c -0.03588,-0.10864 -0.137758,-0.1822 -0.25218,-0.1819 h -0.363285 l -0.0057,-0.0155 z m -6.625436,2.11201 c -0.0092,-1.3e-4 -0.01828,2.2e-4 -0.02739,10e-4 -0.224065,0.0223 -0.319715,0.29639 -0.158131,0.45321 l 0.07803,0.078 -0.07803,0.0785 c -0.270132,0.24996 0.127087,0.64445 0.375171,0.37259 l 0.077,-0.077 0.077,0.077 c 0.248084,0.27186 0.645303,-0.12263 0.375171,-0.37259 l -0.07803,-0.0785 0.07803,-0.078 c 0.170783,-0.16798 0.04829,-0.45832 -0.191201,-0.45321 -0.06946,0.002 -0.135541,0.0303 -0.18397,0.0801 l -0.077,0.077 -0.077,-0.077 c -0.04964,-0.0516 -0.118062,-0.0809 -0.189653,-0.0811 z m 4.233333,0 c -0.0092,-1.3e-4 -0.01828,2.2e-4 -0.02739,10e-4 -0.224065,0.0223 -0.319715,0.29639 -0.158131,0.45321 l 0.07803,0.078 -0.07803,0.0785 c -0.270132,0.24996 0.127087,0.64445 0.375171,0.37259 l 0.077,-0.077 0.077,0.077 c 0.248084,0.27186 0.645303,-0.12263 0.375172,-0.37259 l -0.07803,-0.0785 0.07803,-0.078 c 0.170783,-0.16798 0.04829,-0.45832 -0.191202,-0.45321 -0.06946,0.002 -0.13554,0.0303 -0.18397,0.0801 l -0.077,0.077 -0.077,-0.077 c -0.04964,-0.0516 -0.118062,-0.0809 -0.189653,-0.0811 z m 2.203484,0.7984 h 1.999877 l 0.08785,0.26562 h -2.176092 z m -6.00325,2.11667 h 7.923546 v 0.52917 c -2.641521,-6.1e-4 -5.282232,0 -7.923538,0 z m 2.017448,1.05885 h 0.501777 c -0.313238,0.89043 -0.588169,1.76296 -0.882634,2.64635 h -0.502293 z m 1.057815,0 h 1.769919 l 0.176216,0.52917 h -2.12235 z m 2.326992,0 h 0.501777 l 0.882634,2.64635 h -0.50178 c -0.294291,-0.88316 -0.587962,-1.76261 -0.882631,-2.64635 z m -2.679941,1.05833 h 2.475817 l 0.176218,0.52917 h -2.828253 z"
         style="color:#000000;font-style:normal;font-variant:normal;font-weight:normal;font-stretch:normal;font-size:medium;line-height:normal;font-family:sans-serif;font-variant-ligatures:normal;font-variant-position:normal;font-variant-caps:normal;font-variant-numeric:normal;font-variant-alternates:normal;font-feature-settings:normal;text-indent:0;text-align:start;text-decoration:none;text-decoration-line:none;text-decoration-style:solid;text-decoration-color:#000000;letter-spacing:normal;word-spacing:normal;text-transform:none;writing-mode:lr-tb;direction:ltr;text-orientation:mixed;dominant-baseline:auto;baseline-shift:baseline;text-anchor:start;white-space:normal;shape-padding:0;clip-rule:nonzero;display:inline;overflow:visible;visibility:visible;isolation:auto;mix-blend-mode:normal;color-interpolation:sRGB;color-interpolation-filters:linearRGB;solid-color:#000000;solid-opacity:1;vector-effect:none;fill:#000000;fill-opacity:1;fill-rule:nonzero;stroke:none;stroke-width:0.42545754;stroke-linecap:round;stroke-linejoin:round;stroke-miterlimit:4;stroke-dasharray:none;stroke-dashoffset:0;stroke-opacity:1;color-rendering:auto;image-rendering:auto;shape-rendering:auto;text-rendering:auto;enable-background:accumulate" />
    </g>
  </g>
</svg>
